# xmcd
#
# Track frame offsets:
#	150
#	12515
#	27910
#	41167
#	57832
#	70947
#	87460
#	104127
#	116822
#	132162
#	148487
#
# Disc length: 2136 seconds
#
# Revision: 0
# Processed by: cddbd v1.4PL0 Copyright (c) Steve Scherf et al.
# Submitted via: EasyCDDAExtractor 4.6.9.1
#
DISCID=ab08560b
DTITLE=Rattlesnake Annie - Country Living
DYEAR=1985
DGENRE=Country
TTITLE0=Livin' On The Outskirts Of Town
TTITLE1=Country Music Hall Of Pain
TTITLE2=Jimmie Rogers
TTITLE3=How Much Can You See
TTITLE4=Mountain Man
TTITLE5=Long Black Limousine
TTITLE6=Funny Country Living
TTITLE7=Tennessee Lullaby
TTITLE8=Sister's Coming Home
TTITLE9=Dancing John
TTITLE10=Comanche Tears
EXTD=
EXTT0=
EXTT1=
EXTT2=
EXTT3=
EXTT4=
EXTT5=
EXTT6=
EXTT7=
EXTT8=
EXTT9=
EXTT10=
PLAYORDER=
